<svg xmlns="http://www.w3.org/2000/svg" width="393.642" height="393.642" viewBox="0 0 393.642 393.642" style="enable-background:new 0 0 393.642 393.642" xml:space="preserve"><path d="M36.846 34.046c-42.84 33.66-42.84 92.412-27.54 140.148 22.032 65.484 80.784 119.34 151.776 123.012 50.796 2.448 98.533-48.349 96.697-98.532 1.836-4.896 2.447-9.18 3.06-14.688.612-7.344-.612-15.912-6.12-20.196-1.224-.612-2.448-.612-3.672-.612-1.836-.612-3.06-.612-4.284-.612-12.852 2.448-29.376 1.224-41.004 7.956-2.448-.612-5.508.612-6.12 3.06-9.792 33.048-36.108 53.244-70.992 37.944-25.093-11.016-41.617-38.556-50.185-63.036-7.956-22.644-5.508-50.184 15.3-64.26 22.032-15.3 49.572-.612 66.096 14.688 2.448 1.836 4.896 2.448 7.344 1.836 1.224 1.836 3.672 3.06 6.12 1.836 15.912-9.792 33.049-12.852 51.408-13.464 4.284 0 7.956-4.284 6.732-9.18-2.448-7.956-6.732-13.464-12.24-18.972 0-2.448-1.224-4.284-3.06-6.12C169.038 19.97 88.866-6.958 36.846 34.046z"/><path d="M169.65 130.742c-2.448 1.836-4.284 3.672-6.12 5.508-14.688 13.464-23.256 32.436-25.704 52.02-1.224 5.509-1.836 11.017-1.224 17.137 0 3.06 2.448 6.12 6.12 6.12 18.36-.612 31.212-7.956 42.228-22.645 7.956-11.016 15.301-21.42 26.929-29.376 5.508-3.672 11.016-5.508 16.524-6.12 4.283.612 8.567.612 12.852.612 18.36 3.06 36.72 17.136 48.348 29.988 22.645 23.868 36.108 61.2 31.212 93.636-6.119 41.004-69.768 40.392-85.067 7.344-.612-1.836-2.448-1.836-4.284-1.224-1.836-1.225-3.672-1.225-5.508 0-7.345 4.284-12.24 12.852-18.973 18.359-7.344 5.509-15.3 11.017-23.868 14.076-3.06 1.225-3.672 5.508-1.836 7.344-.612 1.225-.612 2.448 0 4.284 1.836 3.672 2.448 8.568 6.732 9.792 6.12 14.076 21.42 26.929 33.661 33.048 22.644 12.24 50.184 11.017 74.052 6.12 58.141-12.852 97.92-58.752 97.92-118.116 0-68.544-50.796-134.027-113.22-157.284-43.454-17.135-86.906-2.447-110.774 29.377z"/></svg>